<svg width="132" height="177" viewBox="0 0 132 177" fill="none" xmlns="http://www.w3.org/2000/svg">
<path d="M3.161 90.221C0.300001 97.867 -1.874 66.842 4.388 60.754C4.512 63.959 5.591 64.557 6.398 67.381C8.029 61.995 8.171 55.975 10.349 50.716C12.42 45.712 14.99 41.903 19.113 38.619C19.869 39.888 20.334 41.252 21.07 42.485C25.602 26.734 42.325 28.111 53.56 21C53.932 23.816 52.367 26.962 52.07 29.763C51.739 32.871 51.669 35.852 50.53 38.703C47.676 45.849 42.32 47.561 36.828 51.83C39.379 51.576 41.644 51.204 44.246 51.121C39.968 52.142 39.719 56.45 38.136 59.348C35.785 63.651 32.828 64.184 28.93 66.297C31.304 65.809 34.608 66.995 36.264 68.482C30.604 72.304 29.641 79.224 24.69 83.436C20.649 86.876 10.52 89.672 9.261 95.063L0 111.301C0 111.301 17.01 54.47 36.569 40.446C36.569 40.446 21.99 39.889 3.161 90.221Z" fill="#FF485E"/>
<path d="M55.3164 60.498C54.5 60.2116 54.0918 59.474 54.0918 58.2852C54.0918 57.3542 55.9824 56.4518 59.7637 55.5781C63.5592 54.6901 66.8678 54.2461 69.6895 54.2461C72.8118 54.2461 75.2897 54.8906 77.123 56.1797C78.9564 57.4688 79.873 59.1803 79.873 61.3145C79.873 64.4798 78.1257 67.3158 74.6309 69.8223C71.1504 72.3288 66.4525 74.1693 60.5371 75.3438C58.9759 75.6589 58.0951 75.9238 57.8945 76.1387C57.7083 76.3392 57.5579 77.6139 57.4434 79.9629C57.3431 82.2975 57.293 83.9232 57.293 84.8398C57.293 85.4844 57.0853 86.0645 56.6699 86.5801C56.2689 87.0957 55.7962 87.3535 55.252 87.3535C53.9915 87.3535 53.3613 86.5013 53.3613 84.7969C53.3613 83.8659 53.6191 81.2734 54.1348 77.0195L55.6602 64.2793C55.7031 64.0645 55.7103 63.4486 55.6816 62.4316C55.6673 61.4147 55.5456 60.7702 55.3164 60.498ZM59.7852 59.2734C59.6849 59.6888 59.5846 60.4551 59.4844 61.5723C59.2839 63.5632 59.0332 65.7617 58.7324 68.168C58.5749 69.4284 58.4245 70.7962 58.2812 72.2715C62.9935 71.627 67.1758 70.3092 70.8281 68.3184C74.4805 66.3275 76.3066 64.1432 76.3066 61.7656C76.3066 58.8438 74.0436 57.3828 69.5176 57.3828C66.5527 57.3828 63.3086 58.013 59.7852 59.2734ZM100.713 78.7168C100.713 80.1777 99.4167 81.9395 96.8242 84.002C94.2461 86.0645 91.582 87.0957 88.832 87.0957C86.526 87.0957 84.7428 86.4154 83.4824 85.0547C82.2363 83.694 81.6133 81.7962 81.6133 79.3613C81.6133 75.265 82.9954 71.3691 85.7598 67.6738C88.5241 63.9785 91.5462 62.1309 94.8262 62.1309C95.9004 62.1309 96.7741 62.4818 97.4473 63.1836C98.1348 63.8854 98.4785 64.7305 98.4785 65.7188C98.4785 67.9245 97.3971 70.0371 95.2344 72.0566C93.0716 74.0762 90.1784 76.0599 86.5547 78.0078C85.8099 78.3945 85.4375 78.8958 85.4375 79.5117C85.4375 80.7005 85.7812 81.653 86.4688 82.3691C87.1562 83.0853 88.1732 83.4434 89.5195 83.4434C92.599 83.4434 95.7428 81.7389 98.9512 78.3301C99.4238 77.8574 99.7819 77.6211 100.025 77.6211C100.484 77.6211 100.713 77.9863 100.713 78.7168ZM85.7812 75.3652C91.8542 71.7559 94.8906 68.8555 94.8906 66.6641C94.8906 65.8047 94.5039 65.375 93.7305 65.375C92.4128 65.375 90.9232 66.3418 89.2617 68.2754C87.6146 70.209 86.4544 72.5723 85.7812 75.3652ZM119.855 69.4785C119.111 69.4785 118.294 69.9655 117.406 70.9395C116.533 71.9134 115.193 74.0977 113.389 77.4922C111.011 82.0469 109.471 84.6393 108.77 85.2695C108.082 85.8997 107.509 86.2148 107.051 86.2148C105.361 86.2148 104.516 85.3984 104.516 83.7656C104.516 83.0781 104.63 82.1042 104.859 80.8438C105.647 76.5182 106.041 71.9564 106.041 67.1582C106.041 66.6139 106.27 66.0124 106.729 65.3535C107.201 64.6803 107.645 64.3438 108.061 64.3438C108.805 64.3438 109.335 64.5729 109.65 65.0312C109.965 65.4896 110.123 66.4134 110.123 67.8027C110.123 69.2493 109.693 72.2285 108.834 76.7402C108.548 78.2298 108.404 79.1751 108.404 79.5762C108.404 79.8053 108.462 79.9199 108.576 79.9199C108.791 79.9199 109.786 78.2083 111.562 74.7852C113.353 71.3047 114.921 68.8555 116.268 67.4375C117.614 66.0195 119.096 65.3105 120.715 65.3105C122.004 65.3105 123.049 65.8978 123.852 67.0723C124.668 68.2467 125.262 70.388 125.635 73.4961C126.036 77.0339 126.394 79.2396 126.709 80.1133C127.038 80.9727 127.554 81.4023 128.256 81.4023C128.7 81.4023 129.258 81.2448 129.932 80.9297C130.046 80.8724 130.132 80.8438 130.189 80.8438C130.805 80.8438 131.113 81.2018 131.113 81.918C131.113 82.5482 130.691 83.2214 129.846 83.9375C129.001 84.6393 127.984 84.9902 126.795 84.9902C125.577 84.9902 124.632 84.5104 123.959 83.5508C123.3 82.5768 122.777 79.9915 122.391 75.7949C121.99 71.584 121.145 69.4785 119.855 69.4785Z" fill="black"/>
<path d="M23.5254 112.523H24.5996C25.1855 112.523 25.8854 112.816 26.6992 113.402C27.513 113.956 27.9199 114.721 27.9199 115.697C27.9199 117.65 27.5781 119.083 26.8945 119.994C26.2109 120.906 25.1042 121.915 23.5742 123.021C22.0768 124.128 21.0189 124.682 20.4004 124.682C19.0332 124.682 18.0241 124.372 17.373 123.754C16.722 123.135 16.3965 121.443 16.3965 118.676C16.3965 116.104 16.543 114.574 16.8359 114.086C17.1289 113.598 17.8288 113.223 18.9355 112.963C20.0749 112.67 21.6048 112.523 23.5254 112.523Z" fill="#FF485E"/>
<path d="M41.4141 100.498C40.5977 100.212 40.1895 99.474 40.1895 98.2852C40.1895 97.3542 42.0801 96.4518 45.8613 95.5781C49.6569 94.6901 52.9655 94.2461 55.7871 94.2461C58.9095 94.2461 61.3874 94.8906 63.2207 96.1797C65.054 97.4688 65.9707 99.1803 65.9707 101.314C65.9707 104.48 64.2233 107.316 60.7285 109.822C57.248 112.329 52.5501 114.169 46.6348 115.344C45.0736 115.659 44.1927 115.924 43.9922 116.139C43.806 116.339 43.6556 117.614 43.541 119.963C43.4408 122.298 43.3906 123.923 43.3906 124.84C43.3906 125.484 43.1829 126.064 42.7676 126.58C42.3665 127.096 41.8939 127.354 41.3496 127.354C40.0892 127.354 39.459 126.501 39.459 124.797C39.459 123.866 39.7168 121.273 40.2324 117.02L41.7578 104.279C41.8008 104.064 41.8079 103.449 41.7793 102.432C41.765 101.415 41.6432 100.77 41.4141 100.498ZM45.8828 99.2734C45.7826 99.6888 45.6823 100.455 45.582 101.572C45.3815 103.563 45.1309 105.762 44.8301 108.168C44.6725 109.428 44.5221 110.796 44.3789 112.271C49.0911 111.627 53.2734 110.309 56.9258 108.318C60.5781 106.327 62.4043 104.143 62.4043 101.766C62.4043 98.8438 60.1413 97.3828 55.6152 97.3828C52.6504 97.3828 49.4062 98.013 45.8828 99.2734ZM82.5566 118.18C80.5514 120.872 78.5677 122.892 76.6055 124.238C74.6432 125.585 72.8457 126.258 71.2129 126.258C70.11 126.258 69.1576 125.792 68.3555 124.861C67.5534 123.93 67.1523 122.734 67.1523 121.273C67.1523 117.507 68.8353 113.453 72.2012 109.113C75.5671 104.759 78.9115 102.582 82.2344 102.582C83.4375 102.582 84.3327 103.27 84.9199 104.645C85.1061 105.103 85.3997 105.332 85.8008 105.332C86.9466 105.332 87.5195 105.776 87.5195 106.664C87.5195 107.108 87.4479 107.717 87.3047 108.49C86.5312 112.715 86.1445 115.695 86.1445 117.428C86.1445 120.894 86.8034 122.971 88.1211 123.658C88.7513 124.002 89.0664 124.424 89.0664 124.926C89.0664 125.37 88.7585 125.814 88.1426 126.258C87.5267 126.716 86.9323 126.945 86.3594 126.945C85.2565 126.945 84.347 126.186 83.6309 124.668C82.9147 123.15 82.5566 120.987 82.5566 118.18ZM81.2461 106.084C79.3555 106.084 77.1569 107.86 74.6504 111.412C72.1439 114.95 70.8906 117.886 70.8906 120.221C70.8906 121.868 71.4349 122.691 72.5234 122.691C74.099 122.691 76.2832 121.102 79.0762 117.922C81.8691 114.742 83.2656 111.82 83.2656 109.156C83.2656 107.108 82.5924 106.084 81.2461 106.084ZM101.42 89.627C102.451 89.627 102.967 90.2858 102.967 91.6035C102.967 92.778 102.344 95.571 101.098 99.9824C100.31 102.761 99.7012 105.826 99.2715 109.178C98.8418 112.529 98.627 115.158 98.627 117.062C98.627 119.426 98.7773 121.775 99.0781 124.109C99.1354 124.553 99.1641 124.876 99.1641 125.076C99.1641 125.792 98.9206 126.408 98.4336 126.924C97.9466 127.439 97.431 127.697 96.8867 127.697C96.1276 127.697 95.5977 127.225 95.2969 126.279C95.0104 125.334 94.8672 123.809 94.8672 121.703C94.8672 116.905 95.4401 110.961 96.5859 103.871C97.7461 96.7812 98.6628 92.6348 99.3359 91.4316C100.023 90.2285 100.718 89.627 101.42 89.627Z" fill="black"/>
</svg>
